<?xml version="1.0" encoding="UTF-8"?>
<svg xmlns="http://www.w3.org/2000/svg" xmlns:xlink="http://www.w3.org/1999/xlink" width="98" height="36.725" viewBox="0 0 98 36.725">
  <defs>
    <clipPath id="clip-path">
      <rect id="Rectangle_134" data-name="Rectangle 134" width="98" height="36.725" fill="#fdfff4"></rect>
    </clipPath>
  </defs>
  <g id="Group_375" data-name="Group 375" transform="translate(0 0)">
    <g id="Group_374" data-name="Group 374" transform="translate(0 0)" clip-path="url(#clip-path)">
      <path id="Path_128" data-name="Path 128" d="M115.218,84.265a.538.538,0,0,1-.087-.346.465.465,0,0,1,.251-.366.522.522,0,0,1,.327-.082.547.547,0,0,1,.338.178,2.271,2.271,0,0,0,.588.433,1.718,1.718,0,0,0,.771.154,2.656,2.656,0,0,0,.32-.043.612.612,0,0,0,.3-.155.484.484,0,0,0,.13-.371.425.425,0,0,0-.146-.337,1.2,1.2,0,0,0-.381-.212q-.236-.087-.525-.164t-.612-.193a2.588,2.588,0,0,1-.573-.275,1.321,1.321,0,0,1-.424-.448,1.375,1.375,0,0,1-.164-.705,1.271,1.271,0,0,1,.27-.819,1.771,1.771,0,0,1,.7-.52,2.278,2.278,0,0,1,.9-.183,2.9,2.9,0,0,1,.626.072,2.452,2.452,0,0,1,.627.233,1.552,1.552,0,0,1,.5.419.684.684,0,0,1,.125.347.413.413,0,0,1-.182.364.463.463,0,0,1-.338.1.509.509,0,0,1-.319-.13,1.141,1.141,0,0,0-.439-.338,1.511,1.511,0,0,0-.631-.125,1.618,1.618,0,0,0-.313.034.612.612,0,0,0-.294.146.525.525,0,0,0,.02.7,1.1,1.1,0,0,0,.39.213q.246.082.526.159t.588.183a2.318,2.318,0,0,1,.549.279,1.331,1.331,0,0,1,.4.448,1.414,1.414,0,0,1,.154.7,1.269,1.269,0,0,1-.29.839,1.829,1.829,0,0,1-.723.525,2.312,2.312,0,0,1-.887.178,3.456,3.456,0,0,1-1.137-.2,1.97,1.97,0,0,1-.943-.7" transform="translate(-69.974 -48.509)" fill="#fdfff4"></path>
      <path id="Path_129" data-name="Path 129" d="M143.587,85.161a2.832,2.832,0,0,1-1.423-.342,2.364,2.364,0,0,1-.925-.93,2.719,2.719,0,0,1-.324-1.331,2.923,2.923,0,0,1,.352-1.48,2.488,2.488,0,0,1,.921-.94,2.375,2.375,0,0,1,1.206-.327,2.193,2.193,0,0,1,.93.2,2.544,2.544,0,0,1,.776.554,2.691,2.691,0,0,1,.535.813,2.473,2.473,0,0,1,.2.983.492.492,0,0,1-.182.377.612.612,0,0,1-.4.145h-3.682l-.291-.964h3.539l-.212.193v-.26a.881.881,0,0,0-.2-.5,1.3,1.3,0,0,0-.444-.352,1.265,1.265,0,0,0-.564-.13,1.837,1.837,0,0,0-.54.077,1.032,1.032,0,0,0-.433.261,1.26,1.26,0,0,0-.291.491,2.438,2.438,0,0,0-.106.781,1.685,1.685,0,0,0,.217.882,1.483,1.483,0,0,0,1.287.737,2.237,2.237,0,0,0,.569-.058,1.284,1.284,0,0,0,.342-.14c.087-.055.165-.1.236-.14a.735.735,0,0,1,.327-.087.485.485,0,0,1,.491.479v0a.6.6,0,0,1-.27.472,2.232,2.232,0,0,1-.7.371,2.8,2.8,0,0,1-.933.158" transform="translate(-85.646 -48.509)" fill="#fdfff4"></path>
      <path id="Path_130" data-name="Path 130" d="M170.761,85.064a.553.553,0,0,1-.415-.169.579.579,0,0,1-.164-.42V80.495a.578.578,0,0,1,.164-.419.594.594,0,0,1,.829,0,.577.577,0,0,1,.164.419V81.4l-.067-.646a1.5,1.5,0,0,1,.275-.409,1.621,1.621,0,0,1,.38-.3,1.715,1.715,0,0,1,.453-.178,2.058,2.058,0,0,1,.482-.058.738.738,0,0,1,.487.164.488.488,0,0,1,.2.386.57.57,0,0,1-.164.458.539.539,0,0,1-.357.14.8.8,0,0,1-.333-.067.82.82,0,0,0-.342-.067A.834.834,0,0,0,172,80.9a.968.968,0,0,0-.328.255,1.339,1.339,0,0,0-.241.429,1.786,1.786,0,0,0-.091.6v2.285a.578.578,0,0,1-.164.419.553.553,0,0,1-.415.169Z" transform="translate(-103.435 -48.508)" fill="#fdfff4"></path>
      <path id="Path_131" data-name="Path 131" d="M194.045,80.056a.652.652,0,0,1,.338.091.561.561,0,0,1,.232.275l1.415,3.238-.212.1,1.446-3.326a.507.507,0,0,1,.511-.366.527.527,0,0,1,.39.149.5.5,0,0,1,.149.371.5.5,0,0,1-.024.146c-.015.049-.033.1-.053.145l-1.8,3.971a.552.552,0,0,1-.491.366.524.524,0,0,1-.352-.067.6.6,0,0,1-.255-.3l-1.793-3.972c-.013-.032-.027-.074-.044-.125a.629.629,0,0,1-.024-.183.509.509,0,0,1,.154-.342.535.535,0,0,1,.415-.169" transform="translate(-117.593 -48.657)" fill="#fdfff4"></path>
      <path id="Path_132" data-name="Path 132" d="M222.221,84.625a.578.578,0,0,1-.164.419.593.593,0,0,1-.829,0,.578.578,0,0,1-.164-.419V80.644a.578.578,0,0,1,.164-.419.592.592,0,0,1,.829,0,.578.578,0,0,1,.164.419Z" transform="translate(-134.361 -48.657)" fill="#fdfff4"></path>
      <path id="Path_133" data-name="Path 133" d="M239.577,84.263a.538.538,0,0,1-.087-.347.465.465,0,0,1,.251-.366.528.528,0,0,1,.327-.082.552.552,0,0,1,.338.179,2.281,2.281,0,0,0,.588.434,1.718,1.718,0,0,0,.771.154,2.659,2.659,0,0,0,.319-.043.61.61,0,0,0,.3-.155.483.483,0,0,0,.13-.371.424.424,0,0,0-.145-.337,1.212,1.212,0,0,0-.381-.212q-.236-.087-.526-.164t-.612-.193a2.555,2.555,0,0,1-.574-.275,1.322,1.322,0,0,1-.424-.448,1.374,1.374,0,0,1-.164-.7,1.273,1.273,0,0,1,.27-.82,1.762,1.762,0,0,1,.7-.52,2.272,2.272,0,0,1,.9-.184,2.9,2.9,0,0,1,.626.073,2.45,2.45,0,0,1,.627.232,1.543,1.543,0,0,1,.5.419.679.679,0,0,1,.125.347.412.412,0,0,1-.183.365.462.462,0,0,1-.337.1.511.511,0,0,1-.319-.13,1.14,1.14,0,0,0-.439-.338,1.514,1.514,0,0,0-.631-.125,1.612,1.612,0,0,0-.313.034.611.611,0,0,0-.294.146.525.525,0,0,0,.02.7,1.1,1.1,0,0,0,.391.213q.245.082.525.159t.588.183a2.31,2.31,0,0,1,.549.279,1.326,1.326,0,0,1,.406.449,1.418,1.418,0,0,1,.155.7,1.266,1.266,0,0,1-.291.839,1.831,1.831,0,0,1-.723.526,2.31,2.31,0,0,1-.887.178,3.449,3.449,0,0,1-1.137-.2,1.971,1.971,0,0,1-.942-.7" transform="translate(-145.558 -48.507)" fill="#fdfff4"></path>
      <path id="Path_134" data-name="Path 134" d="M9.829,36.175a9.871,9.871,0,0,1,0-19.742c.267,0,14.557,0,19.421,0A14.889,14.889,0,0,0,14.478,3.052a1.524,1.524,0,0,1,0-3.049A17.912,17.912,0,0,1,32.366,17.9a1.573,1.573,0,0,1-1.515,1.585l-21.022,0a6.823,6.823,0,0,0,0,13.645,1.518,1.518,0,0,1,1.518,1.517v.007a1.52,1.52,0,0,1-1.515,1.525h0" transform="translate(0 -0.002)" fill="#fdfff4"></path>
      <path id="Path_135" data-name="Path 135" d="M95.177,36.727a1.52,1.52,0,0,1-1.518-1.521V1.527a1.518,1.518,0,1,1,3.036,0V35.2a1.518,1.518,0,0,1-1.511,1.525h-.007" transform="translate(-56.925 -0.002)" fill="#fdfff4"></path>
      <path id="Path_136" data-name="Path 136" d="M144.475,27.672a1.517,1.517,0,0,1-1.518-1.515v0a6.708,6.708,0,0,0-6.7-6.708H123.445A9.723,9.723,0,0,1,123.213,0q.116,0,.232,0h18.432a1.518,1.518,0,0,1,0,3.036H123.445a6.687,6.687,0,1,0-.222,13.372q.111,0,.222,0h12.808a9.746,9.746,0,0,1,9.741,9.744,1.516,1.516,0,0,1-1.512,1.518h-.007" transform="translate(-69.049 0)" fill="#fdfff4"></path>
    </g>
  </g>
</svg>
